<svg class="marks" width="1580" height="659" viewBox="0 0 1580 659" version="1.1" xmlns="http://www.w3.org/2000/svg" xmlns:xlink="http://www.w3.org/1999/xlink"><rect width="1580" height="659" style="fill: white;"></rect><defs><clipPath id="clip1"><rect x="0" y="0" width="89" height="50"></rect></clipPath><clipPath id="clip2"><rect x="0" y="0" width="89" height="50"></rect></clipPath><clipPath id="clip3"><rect x="0" y="0" width="89" height="50"></rect></clipPath><clipPath id="clip4"><rect x="0" y="0" width="89" height="50"></rect></clipPath></defs><g transform="translate(203,22)"><g class="mark-group role-frame root"><g transform="translate(0,0)"><path class="background" d="M0.5,0.5h1200v600h-1200Z" style="fill: none; stroke: #ddd;"></path><g><g class="mark-group role-axis"><g transform="translate(0.5,600.5)"><path class="background" d="M0,0h0v0h0Z" style="pointer-events: none; fill: none;"></path><g><g class="mark-rule role-axis-grid" style="pointer-events: none;"><line transform="translate(0,0)" x2="0" y2="-600" style="fill: none; stroke: #ddd; stroke-width: 1; opacity: 1;"></line><line transform="translate(46,0)" x2="0" y2="-600" style="fill: none; stroke: #ddd; stroke-width: 1; opacity: 1;"></line><line transform="translate(92,0)" x2="0" y2="-600" style="fill: none; stroke: #ddd; stroke-width: 1; opacity: 1;"></line><line transform="translate(138,0)" x2="0" y2="-600" style="fill: none; stroke: #ddd; stroke-width: 1; opacity: 1;"></line><line transform="translate(185,0)" x2="0" y2="-600" style="fill: none; stroke: #ddd; stroke-width: 1; opacity: 1;"></line><line transform="translate(231,0)" x2="0" y2="-600" style="fill: none; stroke: #ddd; stroke-width: 1; opacity: 1;"></line><line transform="translate(277,0)" x2="0" y2="-600" style="fill: none; stroke: #ddd; stroke-width: 1; opacity: 1;"></line><line transform="translate(323,0)" x2="0" y2="-600" style="fill: none; stroke: #ddd; stroke-width: 1; opacity: 1;"></line><line transform="translate(369,0)" x2="0" y2="-600" style="fill: none; stroke: #ddd; stroke-width: 1; opacity: 1;"></line><line transform="translate(415,0)" x2="0" y2="-600" style="fill: none; stroke: #ddd; stroke-width: 1; opacity: 1;"></line><line transform="translate(462,0)" x2="0" y2="-600" style="fill: none; stroke: #ddd; stroke-width: 1; opacity: 1;"></line><line transform="translate(508,0)" x2="0" y2="-600" style="fill: none; stroke: #ddd; stroke-width: 1; opacity: 1;"></line><line transform="translate(554,0)" x2="0" y2="-600" style="fill: none; stroke: #ddd; stroke-width: 1; opacity: 1;"></line><line transform="translate(600,0)" x2="0" y2="-600" style="fill: none; stroke: #ddd; stroke-width: 1; opacity: 1;"></line><line transform="translate(646,0)" x2="0" y2="-600" style="fill: none; stroke: #ddd; stroke-width: 1; opacity: 1;"></line><line transform="translate(692,0)" x2="0" y2="-600" style="fill: none; stroke: #ddd; stroke-width: 1; opacity: 1;"></line><line transform="translate(738,0)" x2="0" y2="-600" style="fill: none; stroke: #ddd; stroke-width: 1; opacity: 1;"></line><line transform="translate(785,0)" x2="0" y2="-600" style="fill: none; stroke: #ddd; stroke-width: 1; opacity: 1;"></line><line transform="translate(831,0)" x2="0" y2="-600" style="fill: none; stroke: #ddd; stroke-width: 1; opacity: 1;"></line><line transform="translate(877,0)" x2="0" y2="-600" style="fill: none; stroke: #ddd; stroke-width: 1; opacity: 1;"></line><line transform="translate(923,0)" x2="0" y2="-600" style="fill: none; stroke: #ddd; stroke-width: 1; opacity: 1;"></line><line transform="translate(969,0)" x2="0" y2="-600" style="fill: none; stroke: #ddd; stroke-width: 1; opacity: 1;"></line><line transform="translate(1015,0)" x2="0" y2="-600" style="fill: none; stroke: #ddd; stroke-width: 1; opacity: 1;"></line><line transform="translate(1062,0)" x2="0" y2="-600" style="fill: none; stroke: #ddd; stroke-width: 1; opacity: 1;"></line><line transform="translate(1108,0)" x2="0" y2="-600" style="fill: none; stroke: #ddd; stroke-width: 1; opacity: 1;"></line><line transform="translate(1154,0)" x2="0" y2="-600" style="fill: none; stroke: #ddd; stroke-width: 1; opacity: 1;"></line><line transform="translate(1200,0)" x2="0" y2="-600" style="fill: none; stroke: #ddd; stroke-width: 1; opacity: 1;"></line></g></g><path class="foreground" d="" style="pointer-events: none; display: none; fill: none;"></path></g></g><g class="mark-group role-axis"><g transform="translate(0.5,600.5)"><path class="background" d="M0,0h0v0h0Z" style="pointer-events: none; fill: none;"></path><g><g class="mark-rule role-axis-tick" style="pointer-events: none;"><line transform="translate(0,0)" x2="0" y2="5" style="fill: none; stroke: #888; stroke-width: 1; opacity: 1;"></line><line transform="translate(46,0)" x2="0" y2="5" style="fill: none; stroke: #888; stroke-width: 1; opacity: 1;"></line><line transform="translate(92,0)" x2="0" y2="5" style="fill: none; stroke: #888; stroke-width: 1; opacity: 1;"></line><line transform="translate(138,0)" x2="0" y2="5" style="fill: none; stroke: #888; stroke-width: 1; opacity: 1;"></line><line transform="translate(185,0)" x2="0" y2="5" style="fill: none; stroke: #888; stroke-width: 1; opacity: 1;"></line><line transform="translate(231,0)" x2="0" y2="5" style="fill: none; stroke: #888; stroke-width: 1; opacity: 1;"></line><line transform="translate(277,0)" x2="0" y2="5" style="fill: none; stroke: #888; stroke-width: 1; opacity: 1;"></line><line transform="translate(323,0)" x2="0" y2="5" style="fill: none; stroke: #888; stroke-width: 1; opacity: 1;"></line><line transform="translate(369,0)" x2="0" y2="5" style="fill: none; stroke: #888; stroke-width: 1; opacity: 1;"></line><line transform="translate(415,0)" x2="0" y2="5" style="fill: none; stroke: #888; stroke-width: 1; opacity: 1;"></line><line transform="translate(462,0)" x2="0" y2="5" style="fill: none; stroke: #888; stroke-width: 1; opacity: 1;"></line><line transform="translate(508,0)" x2="0" y2="5" style="fill: none; stroke: #888; stroke-width: 1; opacity: 1;"></line><line transform="translate(554,0)" x2="0" y2="5" style="fill: none; stroke: #888; stroke-width: 1; opacity: 1;"></line><line transform="translate(600,0)" x2="0" y2="5" style="fill: none; stroke: #888; stroke-width: 1; opacity: 1;"></line><line transform="translate(646,0)" x2="0" y2="5" style="fill: none; stroke: #888; stroke-width: 1; opacity: 1;"></line><line transform="translate(692,0)" x2="0" y2="5" style="fill: none; stroke: #888; stroke-width: 1; opacity: 1;"></line><line transform="translate(738,0)" x2="0" y2="5" style="fill: none; stroke: #888; stroke-width: 1; opacity: 1;"></line><line transform="translate(785,0)" x2="0" y2="5" style="fill: none; stroke: #888; stroke-width: 1; opacity: 1;"></line><line transform="translate(831,0)" x2="0" y2="5" style="fill: none; stroke: #888; stroke-width: 1; opacity: 1;"></line><line transform="translate(877,0)" x2="0" y2="5" style="fill: none; stroke: #888; stroke-width: 1; opacity: 1;"></line><line transform="translate(923,0)" x2="0" y2="5" style="fill: none; stroke: #888; stroke-width: 1; opacity: 1;"></line><line transform="translate(969,0)" x2="0" y2="5" style="fill: none; stroke: #888; stroke-width: 1; opacity: 1;"></line><line transform="translate(1015,0)" x2="0" y2="5" style="fill: none; stroke: #888; stroke-width: 1; opacity: 1;"></line><line transform="translate(1062,0)" x2="0" y2="5" style="fill: none; stroke: #888; stroke-width: 1; opacity: 1;"></line><line transform="translate(1108,0)" x2="0" y2="5" style="fill: none; stroke: #888; stroke-width: 1; opacity: 1;"></line><line transform="translate(1154,0)" x2="0" y2="5" style="fill: none; stroke: #888; stroke-width: 1; opacity: 1;"></line><line transform="translate(1200,0)" x2="0" y2="5" style="fill: none; stroke: #888; stroke-width: 1; opacity: 1;"></line></g><g class="mark-text role-axis-label" style="pointer-events: none;"><text text-anchor="middle" transform="translate(0,15)" style="font-family: sans-serif; font-size: 10px; fill: #000; opacity: 1;">Wed 04</text><text text-anchor="middle" transform="translate(46.15384615384615,15)" style="font-family: sans-serif; font-size: 10px; fill: #000; opacity: 1;">12 PM</text><text text-anchor="middle" transform="translate(92.3076923076923,15)" style="font-family: sans-serif; font-size: 10px; fill: #000; opacity: 1;">Thu 05</text><text text-anchor="middle" transform="translate(138.46153846153848,15)" style="font-family: sans-serif; font-size: 10px; fill: #000; opacity: 1;">12 PM</text><text text-anchor="middle" transform="translate(184.6153846153846,15)" style="font-family: sans-serif; font-size: 10px; fill: #000; opacity: 1;">Fri 06</text><text text-anchor="middle" transform="translate(230.76923076923077,15)" style="font-family: sans-serif; font-size: 10px; fill: #000; opacity: 1;">12 PM</text><text text-anchor="middle" transform="translate(276.92307692307696,15)" style="font-family: sans-serif; font-size: 10px; fill: #000; opacity: 1;">Sat 07</text><text text-anchor="middle" transform="translate(323.07692307692304,15)" style="font-family: sans-serif; font-size: 10px; fill: #000; opacity: 1;">12 PM</text><text text-anchor="middle" transform="translate(369.2307692307692,15)" style="font-family: sans-serif; font-size: 10px; fill: #000; opacity: 1;">Mar 08</text><text text-anchor="middle" transform="translate(415.38461538461536,15)" style="font-family: sans-serif; font-size: 10px; fill: #000; opacity: 1;">12 PM</text><text text-anchor="middle" transform="translate(461.53846153846155,15)" style="font-family: sans-serif; font-size: 10px; fill: #000; opacity: 1;">Mon 09</text><text text-anchor="middle" transform="translate(507.6923076923077,15)" style="font-family: sans-serif; font-size: 10px; fill: #000; opacity: 1;">12 PM</text><text text-anchor="middle" transform="translate(553.8461538461539,15)" style="font-family: sans-serif; font-size: 10px; fill: #000; opacity: 1;">Tue 10</text><text text-anchor="middle" transform="translate(600,15)" style="font-family: sans-serif; font-size: 10px; fill: #000; opacity: 1;">12 PM</text><text text-anchor="middle" transform="translate(646.1538461538461,15)" style="font-family: sans-serif; font-size: 10px; fill: #000; opacity: 1;">Wed 11</text><text text-anchor="middle" transform="translate(692.3076923076923,15)" style="font-family: sans-serif; font-size: 10px; fill: #000; opacity: 1;">12 PM</text><text text-anchor="middle" transform="translate(738.4615384615385,15)" style="font-family: sans-serif; font-size: 10px; fill: #000; opacity: 1;">Thu 12</text><text text-anchor="middle" transform="translate(784.6153846153846,15)" style="font-family: sans-serif; font-size: 10px; fill: #000; opacity: 1;">12 PM</text><text text-anchor="middle" transform="translate(830.7692307692307,15)" style="font-family: sans-serif; font-size: 10px; fill: #000; opacity: 1;">Fri 13</text><text text-anchor="middle" transform="translate(876.9230769230769,15)" style="font-family: sans-serif; font-size: 10px; fill: #000; opacity: 1;">12 PM</text><text text-anchor="middle" transform="translate(923.0769230769231,15)" style="font-family: sans-serif; font-size: 10px; fill: #000; opacity: 1;">Sat 14</text><text text-anchor="middle" transform="translate(969.2307692307693,15)" style="font-family: sans-serif; font-size: 10px; fill: #000; opacity: 1;">12 PM</text><text text-anchor="middle" transform="translate(1015.3846153846154,15)" style="font-family: sans-serif; font-size: 10px; fill: #000; opacity: 1;">Mar 15</text><text text-anchor="middle" transform="translate(1061.5384615384614,15)" style="font-family: sans-serif; font-size: 10px; fill: #000; opacity: 1;">12 PM</text><text text-anchor="middle" transform="translate(1107.6923076923078,15)" style="font-family: sans-serif; font-size: 10px; fill: #000; opacity: 1;">Mon 16</text><text text-anchor="middle" transform="translate(1153.8461538461538,15)" style="font-family: sans-serif; font-size: 10px; fill: #000; opacity: 1;">12 PM</text><text text-anchor="middle" transform="translate(1200,15)" style="font-family: sans-serif; font-size: 10px; fill: #000; opacity: 1;">Tue 17</text></g><g class="mark-rule role-axis-domain" style="pointer-events: none;"><line transform="translate(0,0)" x2="1200" y2="0" style="fill: none; stroke: #888; stroke-width: 1; opacity: 1;"></line></g><g class="mark-text role-axis-title" style="pointer-events: none;"><text text-anchor="middle" transform="translate(600,30)" style="font-family: sans-serif; font-size: 11px; font-weight: bold; fill: #000; opacity: 1;">Dates</text></g></g><path class="foreground" d="" style="pointer-events: none; display: none; fill: none;"></path></g></g><g class="mark-group role-axis"><g transform="translate(0.5,0.5)"><path class="background" d="M0,0h0v0h0Z" style="pointer-events: none; fill: none;"></path><g><g class="mark-rule role-axis-tick" style="pointer-events: none;"><line transform="translate(0,15)" x2="-5" y2="0" style="fill: none; stroke: #888; stroke-width: 1; opacity: 1;"></line><line transform="translate(0,45)" x2="-5" y2="0" style="fill: none; stroke: #888; stroke-width: 1; opacity: 1;"></line><line transform="translate(0,75)" x2="-5" y2="0" style="fill: none; stroke: #888; stroke-width: 1; opacity: 1;"></line><line transform="translate(0,105)" x2="-5" y2="0" style="fill: none; stroke: #888; stroke-width: 1; opacity: 1;"></line><line transform="translate(0,135)" x2="-5" y2="0" style="fill: none; stroke: #888; stroke-width: 1; opacity: 1;"></line><line transform="translate(0,165)" x2="-5" y2="0" style="fill: none; stroke: #888; stroke-width: 1; opacity: 1;"></line><line transform="translate(0,195)" x2="-5" y2="0" style="fill: none; stroke: #888; stroke-width: 1; opacity: 1;"></line><line transform="translate(0,225)" x2="-5" y2="0" style="fill: none; stroke: #888; stroke-width: 1; opacity: 1;"></line><line transform="translate(0,255)" x2="-5" y2="0" style="fill: none; stroke: #888; stroke-width: 1; opacity: 1;"></line><line transform="translate(0,285)" x2="-5" y2="0" style="fill: none; stroke: #888; stroke-width: 1; opacity: 1;"></line><line transform="translate(0,315)" x2="-5" y2="0" style="fill: none; stroke: #888; stroke-width: 1; opacity: 1;"></line><line transform="translate(0,345)" x2="-5" y2="0" style="fill: none; stroke: #888; stroke-width: 1; opacity: 1;"></line><line transform="translate(0,375)" x2="-5" y2="0" style="fill: none; stroke: #888; stroke-width: 1; opacity: 1;"></line><line transform="translate(0,405)" x2="-5" y2="0" style="fill: none; stroke: #888; stroke-width: 1; opacity: 1;"></line><line transform="translate(0,435)" x2="-5" y2="0" style="fill: none; stroke: #888; stroke-width: 1; opacity: 1;"></line><line transform="translate(0,465)" x2="-5" y2="0" style="fill: none; stroke: #888; stroke-width: 1; opacity: 1;"></line><line transform="translate(0,495)" x2="-5" y2="0" style="fill: none; stroke: #888; stroke-width: 1; opacity: 1;"></line><line transform="translate(0,525)" x2="-5" y2="0" style="fill: none; stroke: #888; stroke-width: 1; opacity: 1;"></line><line transform="translate(0,555)" x2="-5" y2="0" style="fill: none; stroke: #888; stroke-width: 1; opacity: 1;"></line><line transform="translate(0,585)" x2="-5" y2="0" style="fill: none; stroke: #888; stroke-width: 1; opacity: 1;"></line></g><g class="mark-text role-axis-label" style="pointer-events: none;"><text text-anchor="end" transform="translate(-7,18)" style="font-family: sans-serif; font-size: 10px; fill: #000; opacity: 1;">Auvergne-Rhône-Alpes</text><text text-anchor="end" transform="translate(-7,48)" style="font-family: sans-serif; font-size: 10px; fill: #000; opacity: 1;">Bourgogne-Franche-Com…</text><text text-anchor="end" transform="translate(-7,78)" style="font-family: sans-serif; font-size: 10px; fill: #000; opacity: 1;">Bretagne</text><text text-anchor="end" transform="translate(-7,108)" style="font-family: sans-serif; font-size: 10px; fill: #000; opacity: 1;">Centre-Val de Loire</text><text text-anchor="end" transform="translate(-7,138)" style="font-family: sans-serif; font-size: 10px; fill: #000; opacity: 1;">Corse</text><text text-anchor="end" transform="translate(-7,168)" style="font-family: sans-serif; font-size: 10px; fill: #000; opacity: 1;">Grand Est</text><text text-anchor="end" transform="translate(-7,198)" style="font-family: sans-serif; font-size: 10px; fill: #000; opacity: 1;">Guadeloupe</text><text text-anchor="end" transform="translate(-7,228)" style="font-family: sans-serif; font-size: 10px; fill: #000; opacity: 1;">Guyane</text><text text-anchor="end" transform="translate(-7,258)" style="font-family: sans-serif; font-size: 10px; fill: #000; opacity: 1;">Hauts-de-France</text><text text-anchor="end" transform="translate(-7,288)" style="font-family: sans-serif; font-size: 10px; fill: #000; opacity: 1;">Ile-de-France</text><text text-anchor="end" transform="translate(-7,318)" style="font-family: sans-serif; font-size: 10px; fill: #000; opacity: 1;">La Réunion</text><text text-anchor="end" transform="translate(-7,348)" style="font-family: sans-serif; font-size: 10px; fill: #000; opacity: 1;">Martinique</text><text text-anchor="end" transform="translate(-7,378)" style="font-family: sans-serif; font-size: 10px; fill: #000; opacity: 1;">Mayotte</text><text text-anchor="end" transform="translate(-7,408)" style="font-family: sans-serif; font-size: 10px; fill: #000; opacity: 1;">Normandie</text><text text-anchor="end" transform="translate(-7,438)" style="font-family: sans-serif; font-size: 10px; fill: #000; opacity: 1;">Nouvelle-Aquitaine</text><text text-anchor="end" transform="translate(-7,468)" style="font-family: sans-serif; font-size: 10px; fill: #000; opacity: 1;">Occitanie</text><text text-anchor="end" transform="translate(-7,498)" style="font-family: sans-serif; font-size: 10px; fill: #000; opacity: 1;">Pays de la Loire</text><text text-anchor="end" transform="translate(-7,528)" style="font-family: sans-serif; font-size: 10px; fill: #000; opacity: 1;">Provence-Alpes-Côte d…</text><text text-anchor="end" transform="translate(-7,558)" style="font-family: sans-serif; font-size: 10px; fill: #000; opacity: 1;">Saint-Barthélémy</text><text text-anchor="end" transform="translate(-7,588)" style="font-family: sans-serif; font-size: 10px; fill: #000; opacity: 1;">Saint-Martin</text></g><g class="mark-rule role-axis-domain" style="pointer-events: none;"><line transform="translate(0,0)" x2="0" y2="600" style="fill: none; stroke: #888; stroke-width: 1; opacity: 1;"></line></g><g class="mark-text role-axis-title" style="pointer-events: none;"><text text-anchor="middle" transform="translate(-187,300) rotate(-90) translate(0,-2)" style="font-family: sans-serif; font-size: 11px; font-weight: bold; fill: #000; opacity: 1;">Régions</text></g></g><path class="foreground" d="" style="pointer-events: none; display: none; fill: none;"></path></g></g><g class="mark-symbol role-mark marks"><path transform="translate(0,585)" d="M0,0" style="fill: #4c78a8; stroke: black; stroke-width: 1; opacity: 0.8;"></path><path transform="translate(0,555)" d="M0,0" style="fill: #4c78a8; stroke: black; stroke-width: 1; opacity: 0.8;"></path><path transform="translate(0,345)" d="M0,0" style="fill: #4c78a8; stroke: black; stroke-width: 1; opacity: 0.8;"></path><path transform="translate(0,315)" d="M0,0" style="fill: #4c78a8; stroke: black; stroke-width: 1; opacity: 0.8;"></path><path transform="translate(0,75)" d="M2.2983687370895654,0A2.2983687370895654,2.2983687370895654,0,1,1,-2.2983687370895654,0A2.2983687370895654,2.2983687370895654,0,1,1,2.2983687370895654,0" style="fill: #72b7b2; stroke: black; stroke-width: 1; opacity: 0.8;"></path><path transform="translate(0,465)" d="M1.437729031503989,0A1.437729031503989,1.437729031503989,0,1,1,-1.437729031503989,0A1.437729031503989,1.437729031503989,0,1,1,1.437729031503989,0" style="fill: #f58518; stroke: black; stroke-width: 1; opacity: 0.8;"></path><path transform="translate(0,45)" d="M1.9169720420053187,0A1.9169720420053187,1.9169720420053187,0,1,1,-1.9169720420053187,0A1.9169720420053187,1.9169720420053187,0,1,1,1.9169720420053187,0" style="fill: #54a24b; stroke: black; stroke-width: 1; opacity: 0.8;"></path><path transform="translate(0,105)" d="M0,0" style="fill: #4c78a8; stroke: black; stroke-width: 1; opacity: 0.8;"></path><path transform="translate(0,495)" d="M1.2679578233524342,0A1.2679578233524342,1.2679578233524342,0,1,1,-1.2679578233524342,0A1.2679578233524342,1.2679578233524342,0,1,1,1.2679578233524342,0" style="fill: #eeca3b; stroke: black; stroke-width: 1; opacity: 0.8;"></path><path transform="translate(0,165)" d="M2.954252324759405,0A2.954252324759405,2.954252324759405,0,1,1,-2.954252324759405,0A2.954252324759405,2.954252324759405,0,1,1,2.954252324759405,0" style="fill: #bab0ac; stroke: black; stroke-width: 1; opacity: 0.8;"></path><path transform="translate(0,375)" d="M0,0" style="fill: #4c78a8; stroke: black; stroke-width: 1; opacity: 0.8;"></path><path transform="translate(0,135)" d="M0,0" style="fill: #4c78a8; stroke: black; stroke-width: 1; opacity: 0.8;"></path><path transform="translate(0,405)" d="M0.677751965123492,0A0.677751965123492,0.677751965123492,0,1,1,-0.677751965123492,0A0.677751965123492,0.677751965123492,0,1,1,0.677751965123492,0" style="fill: #eeca3b; stroke: black; stroke-width: 1; opacity: 0.8;"></path><path transform="translate(0,225)" d="M0,0" style="fill: #4c78a8; stroke: black; stroke-width: 1; opacity: 0.8;"></path><path transform="translate(0,525)" d="M1.7279352477702712,0A1.7279352477702712,1.7279352477702712,0,1,1,-1.7279352477702712,0A1.7279352477702712,1.7279352477702712,0,1,1,1.7279352477702712,0" style="fill: #f58518; stroke: black; stroke-width: 1; opacity: 0.8;"></path><path transform="translate(0,435)" d="M1.0716199492226188,0A1.0716199492226188,1.0716199492226188,0,1,1,-1.0716199492226188,0A1.0716199492226188,1.0716199492226188,0,1,1,1.0716199492226188,0" style="fill: #b279a2; stroke: black; stroke-width: 1; opacity: 0.8;"></path><path transform="translate(0,255)" d="M3.8637806747322685,0A3.8637806747322685,3.8637806747322685,0,1,1,-3.8637806747322685,0A3.8637806747322685,3.8637806747322685,0,1,1,3.8637806747322685,0" style="fill: #f58518; stroke: black; stroke-width: 1; opacity: 0.8;"></path><path transform="translate(0,15)" d="M3.354701073509308,0A3.354701073509308,3.354701073509308,0,1,1,-3.354701073509308,0A3.354701073509308,3.354701073509308,0,1,1,3.354701073509308,0" style="fill: #54a24b; stroke: black; stroke-width: 1; opacity: 0.8;"></path><path transform="translate(0,285)" d="M3.554161289431132,0A3.554161289431132,3.554161289431132,0,1,1,-3.554161289431132,0A3.554161289431132,3.554161289431132,0,1,1,3.554161289431132,0" style="fill: #e45756; stroke: black; stroke-width: 1; opacity: 0.8;"></path><path transform="translate(0,195)" d="M0.830073243360568,0A0.830073243360568,0.830073243360568,0,1,1,-0.830073243360568,0A0.830073243360568,0.830073243360568,0,1,1,0.830073243360568,0" style="fill: #ff9da6; stroke: black; stroke-width: 1; opacity: 0.8;"></path><path transform="translate(92.3076923076923,585)" d="M0,0" style="fill: #4c78a8; stroke: black; stroke-width: 1; opacity: 0.8;"></path><path transform="translate(92.3076923076923,555)" d="M0,0" style="fill: #4c78a8; stroke: black; stroke-width: 1; opacity: 0.8;"></path><path transform="translate(92.3076923076923,345)" d="M0,0" style="fill: #4c78a8; stroke: black; stroke-width: 1; opacity: 0.8;"></path><path transform="translate(92.3076923076923,315)" d="M0,0" style="fill: #4c78a8; stroke: black; stroke-width: 1; opacity: 0.8;"></path><path transform="translate(92.3076923076923,75)" d="M2.580802594216952,0A2.580802594216952,2.580802594216952,0,1,1,-2.580802594216952,0A2.580802594216952,2.580802594216952,0,1,1,2.580802594216952,0" style="fill: #b279a2; stroke: black; stroke-width: 1; opacity: 0.8;"></path><path transform="translate(92.3076923076923,465)" d="M1.5894692492332634,0A1.5894692492332634,1.5894692492332634,0,1,1,-1.5894692492332634,0A1.5894692492332634,1.5894692492332634,0,1,1,1.5894692492332634,0" style="fill: #bab0ac; stroke: black; stroke-width: 1; opacity: 0.8;"></path><path transform="translate(92.3076923076923,45)" d="M2.9928716413272265,0A2.9928716413272265,2.9928716413272265,0,1,1,-2.9928716413272265,0A2.9928716413272265,2.9928716413272265,0,1,1,2.9928716413272265,0" style="fill: #4c78a8; stroke: black; stroke-width: 1; opacity: 0.8;"></path><path transform="translate(92.3076923076923,105)" d="M0.677751965123492,0A0.677751965123492,0.677751965123492,0,1,1,-0.677751965123492,0A0.677751965123492,0.677751965123492,0,1,1,0.677751965123492,0" style="fill: #eeca3b; stroke: black; stroke-width: 1; opacity: 0.8;"></path><path transform="translate(92.3076923076923,495)" d="M1.355503930246984,0A1.355503930246984,1.355503930246984,0,1,1,-1.355503930246984,0A1.355503930246984,1.355503930246984,0,1,1,1.355503930246984,0" style="fill: #eeca3b; stroke: black; stroke-width: 1; opacity: 0.8;"></path><path transform="translate(92.3076923076923,165)" d="M4.2053403500557565,0A4.2053403500557565,4.2053403500557565,0,1,1,-4.2053403500557565,0A4.2053403500557565,4.2053403500557565,0,1,1,4.2053403500557565,0" style="fill: #72b7b2; stroke: black; stroke-width: 1; opacity: 0.8;"></path><path transform="translate(92.3076923076923,375)" d="M0,0" style="fill: #4c78a8; stroke: black; stroke-width: 1; opacity: 0.8;"></path><path transform="translate(92.3076923076923,135)" d="M0.830073243360568,0A0.830073243360568,0.830073243360568,0,1,1,-0.830073243360568,0A0.830073243360568,0.830073243360568,0,1,1,0.830073243360568,0" style="fill: #ff9da6; stroke: black; stroke-width: 1; opacity: 0.8;"></path><path transform="translate(92.3076923076923,405)" d="M1.1739008385235379,0A1.1739008385235379,1.1739008385235379,0,1,1,-1.1739008385235379,0A1.1739008385235379,1.1739008385235379,0,1,1,1.1739008385235379,0" style="fill: #ff9da6; stroke: black; stroke-width: 1; opacity: 0.8;"></path><path transform="translate(92.3076923076923,225)" d="M1.0716199492226188,0A1.0716199492226188,1.0716199492226188,0,1,1,-1.0716199492226188,0A1.0716199492226188,1.0716199492226188,0,1,1,1.0716199492226188,0" style="fill: #b279a2; stroke: black; stroke-width: 1; opacity: 0.8;"></path><path transform="translate(92.3076923076923,525)" d="M2.033255895370476,0A2.033255895370476,2.033255895370476,0,1,1,-2.033255895370476,0A2.033255895370476,2.033255895370476,0,1,1,2.033255895370476,0" style="fill: #f58518; stroke: black; stroke-width: 1; opacity: 0.8;"></path><path transform="translate(92.3076923076923,435)" d="M1.355503930246984,0A1.355503930246984,1.355503930246984,0,1,1,-1.355503930246984,0A1.355503930246984,1.355503930246984,0,1,1,1.355503930246984,0" style="fill: #eeca3b; stroke: black; stroke-width: 1; opacity: 0.8;"></path><path transform="translate(92.3076923076923,255)" d="M4.122604258289163,0A4.122604258289163,4.122604258289163,0,1,1,-4.122604258289163,0A4.122604258289163,4.122604258289163,0,1,1,4.122604258289163,0" style="fill: #4c78a8; stroke: black; stroke-width: 1; opacity: 0.8;"></path><path transform="translate(92.3076923076923,15)" d="M3.8339440840106374,0A3.8339440840106374,3.8339440840106374,0,1,1,-3.8339440840106374,0A3.8339440840106374,3.8339440840106374,0,1,1,3.8339440840106374,0" style="fill: #4c78a8; stroke: black; stroke-width: 1; opacity: 0.8;"></path><path transform="translate(92.3076923076923,285)" d="M4.177943704346996,0A4.177943704346996,4.177943704346996,0,1,1,-4.177943704346996,0A4.177943704346996,4.177943704346996,0,1,1,4.177943704346996,0" style="fill: #e45756; stroke: black; stroke-width: 1; opacity: 0.8;"></path><path transform="translate(92.3076923076923,195)" d="M0.830073243360568,0A0.830073243360568,0.830073243360568,0,1,1,-0.830073243360568,0A0.830073243360568,0.830073243360568,0,1,1,0.830073243360568,0" style="fill: #ff9da6; stroke: black; stroke-width: 1; opacity: 0.8;"></path><path transform="translate(184.6153846153846,585)" d="M0.677751965123492,0A0.677751965123492,0.677751965123492,0,1,1,-0.677751965123492,0A0.677751965123492,0.677751965123492,0,1,1,0.677751965123492,0" style="fill: #eeca3b; stroke: black; stroke-width: 1; opacity: 0.8;"></path><path transform="translate(184.6153846153846,555)" d="M0.47924301050132967,0A0.47924301050132967,0.47924301050132967,0,1,1,-0.47924301050132967,0A0.47924301050132967,0.47924301050132967,0,1,1,0.47924301050132967,0" style="fill: #f58518; stroke: black; stroke-width: 1; opacity: 0.8;"></path><path transform="translate(184.6153846153846,345)" d="M0.677751965123492,0A0.677751965123492,0.677751965123492,0,1,1,-0.677751965123492,0A0.677751965123492,0.677751965123492,0,1,1,0.677751965123492,0" style="fill: #eeca3b; stroke: black; stroke-width: 1; opacity: 0.8;"></path><path transform="translate(184.6153846153846,315)" d="M0,0" style="fill: #4c78a8; stroke: black; stroke-width: 1; opacity: 0.8;"></path><path transform="translate(184.6153846153846,75)" d="M2.711007860493968,0A2.711007860493968,2.711007860493968,0,1,1,-2.711007860493968,0A2.711007860493968,2.711007860493968,0,1,1,2.711007860493968,0" style="fill: #f58518; stroke: black; stroke-width: 1; opacity: 0.8;"></path><path transform="translate(184.6153846153846,465)" d="M2.033255895370476,0A2.033255895370476,2.033255895370476,0,1,1,-2.033255895370476,0A2.033255895370476,2.033255895370476,0,1,1,2.033255895370476,0" style="fill: #f58518; stroke: black; stroke-width: 1; opacity: 0.8;"></path><path transform="translate(184.6153846153846,45)" d="M4.232559665606789,0A4.232559665606789,4.232559665606789,0,1,1,-4.232559665606789,0A4.232559665606789,4.232559665606789,0,1,1,4.232559665606789,0" style="fill: #54a24b; stroke: black; stroke-width: 1; opacity: 0.8;"></path><path transform="translate(184.6153846153846,105)" d="M1.5894692492332634,0A1.5894692492332634,1.5894692492332634,0,1,1,-1.5894692492332634,0A1.5894692492332634,1.5894692492332634,0,1,1,1.5894692492332634,0" style="fill: #bab0ac; stroke: black; stroke-width: 1; opacity: 0.8;"></path><path transform="translate(184.6153846153846,495)" d="M1.9169720420053187,0A1.9169720420053187,1.9169720420053187,0,1,1,-1.9169720420053187,0A1.9169720420053187,1.9169720420053187,0,1,1,1.9169720420053187,0" style="fill: #54a24b; stroke: black; stroke-width: 1; opacity: 0.8;"></path><path transform="translate(184.6153846153846,165)" d="M5.588885880348189,0A5.588885880348189,5.588885880348189,0,1,1,-5.588885880348189,0A5.588885880348189,5.588885880348189,0,1,1,5.588885880348189,0" style="fill: #54a24b; stroke: black; stroke-width: 1; opacity: 0.8;"></path><path transform="translate(184.6153846153846,375)" d="M0,0" style="fill: #4c78a8; stroke: black; stroke-width: 1; opacity: 0.8;"></path><path transform="translate(184.6153846153846,135)" d="M0.830073243360568,0A0.830073243360568,0.830073243360568,0,1,1,-0.830073243360568,0A0.830073243360568,0.830073243360568,0,1,1,0.830073243360568,0" style="fill: #ff9da6; stroke: black; stroke-width: 1; opacity: 0.8;"></path><path transform="translate(184.6153846153846,405)" d="M1.5894692492332634,0A1.5894692492332634,1.5894692492332634,0,1,1,-1.5894692492332634,0A1.5894692492332634,1.5894692492332634,0,1,1,1.5894692492332634,0" style="fill: #bab0ac; stroke: black; stroke-width: 1; opacity: 0.8;"></path><path transform="translate(184.6153846153846,225)" d="M1.0716199492226188,0A1.0716199492226188,1.0716199492226188,0,1,1,-1.0716199492226188,0A1.0716199492226188,1.0716199492226188,0,1,1,1.0716199492226188,0" style="fill: #b279a2; stroke: black; stroke-width: 1; opacity: 0.8;"></path><path transform="translate(184.6153846153846,525)" d="M2.443669462299232,0A2.443669462299232,2.443669462299232,0,1,1,-2.443669462299232,0A2.443669462299232,2.443669462299232,0,1,1,2.443669462299232,0" style="fill: #bab0ac; stroke: black; stroke-width: 1; opacity: 0.8;"></path><path transform="translate(184.6153846153846,435)" d="M1.5894692492332634,0A1.5894692492332634,1.5894692492332634,0,1,1,-1.5894692492332634,0A1.5894692492332634,1.5894692492332634,0,1,1,1.5894692492332634,0" style="fill: #bab0ac; stroke: black; stroke-width: 1; opacity: 0.8;"></path><path transform="translate(184.6153846153846,255)" d="M4.719996262932273,0A4.719996262932273,4.719996262932273,0,1,1,-4.719996262932273,0A4.719996262932273,4.719996262932273,0,1,1,4.719996262932273,0" style="fill: #b279a2; stroke: black; stroke-width: 1; opacity: 0.8;"></path><path transform="translate(184.6153846153846,15)" d="M4.15036621680284,0A4.15036621680284,4.15036621680284,0,1,1,-4.15036621680284,0A4.15036621680284,4.15036621680284,0,1,1,4.15036621680284,0" style="fill: #f58518; stroke: black; stroke-width: 1; opacity: 0.8;"></path><path transform="translate(184.6153846153846,285)" d="M4.5211695187395495,0A4.5211695187395495,4.5211695187395495,0,1,1,-4.5211695187395495,0A4.5211695187395495,4.5211695187395495,0,1,1,4.5211695187395495,0" style="fill: #4c78a8; stroke: black; stroke-width: 1; opacity: 0.8;"></path><path transform="translate(184.6153846153846,195)" d="M0,0" style="fill: #4c78a8; stroke: black; stroke-width: 1; opacity: 0.8;"></path><path transform="translate(276.92307692307696,585)" d="M0.677751965123492,0A0.677751965123492,0.677751965123492,0,1,1,-0.677751965123492,0A0.677751965123492,0.677751965123492,0,1,1,0.677751965123492,0" style="fill: #eeca3b; stroke: black; stroke-width: 1; opacity: 0.8;"></path><path transform="translate(276.92307692307696,555)" d="M0.47924301050132967,0A0.47924301050132967,0.47924301050132967,0,1,1,-0.47924301050132967,0A0.47924301050132967,0.47924301050132967,0,1,1,0.47924301050132967,0" style="fill: #f58518; stroke: black; stroke-width: 1; opacity: 0.8;"></path><path transform="translate(276.92307692307696,345)" d="M0.677751965123492,0A0.677751965123492,0.677751965123492,0,1,1,-0.677751965123492,0A0.677751965123492,0.677751965123492,0,1,1,0.677751965123492,0" style="fill: #eeca3b; stroke: black; stroke-width: 1; opacity: 0.8;"></path><path transform="translate(276.92307692307696,315)" d="M0,0" style="fill: #4c78a8; stroke: black; stroke-width: 1; opacity: 0.8;"></path><path transform="translate(276.92307692307696,75)" d="M3.0309989318003896,0A3.0309989318003896,3.0309989318003896,0,1,1,-3.0309989318003896,0A3.0309989318003896,3.0309989318003896,0,1,1,3.0309989318003896,0" style="fill: #72b7b2; stroke: black; stroke-width: 1; opacity: 0.8;"></path><path transform="translate(276.92307692307696,465)" d="M2.875458063007978,0A2.875458063007978,2.875458063007978,0,1,1,-2.875458063007978,0A2.875458063007978,2.875458063007978,0,1,1,2.875458063007978,0" style="fill: #9d755d; stroke: black; stroke-width: 1; opacity: 0.8;"></path><path transform="translate(276.92307692307696,45)" d="M5.443154264004899,0A5.443154264004899,5.443154264004899,0,1,1,-5.443154264004899,0A5.443154264004899,5.443154264004899,0,1,1,5.443154264004899,0" style="fill: #4c78a8; stroke: black; stroke-width: 1; opacity: 0.8;"></path><path transform="translate(276.92307692307696,105)" d="M1.9169720420053187,0A1.9169720420053187,1.9169720420053187,0,1,1,-1.9169720420053187,0A1.9169720420053187,1.9169720420053187,0,1,1,1.9169720420053187,0" style="fill: #54a24b; stroke: black; stroke-width: 1; opacity: 0.8;"></path><path transform="translate(276.92307692307696,495)" d="M2.033255895370476,0A2.033255895370476,2.033255895370476,0,1,1,-2.033255895370476,0A2.033255895370476,2.033255895370476,0,1,1,2.033255895370476,0" style="fill: #f58518; stroke: black; stroke-width: 1; opacity: 0.8;"></path><path transform="translate(276.92307692307696,165)" d="M7.577497329500975,0A7.577497329500975,7.577497329500975,0,1,1,-7.577497329500975,0A7.577497329500975,7.577497329500975,0,1,1,7.577497329500975,0" style="fill: #9d755d; stroke: black; stroke-width: 1; opacity: 0.8;"></path><path transform="translate(276.92307692307696,375)" d="M0,0" style="fill: #4c78a8; stroke: black; stroke-width: 1; opacity: 0.8;"></path><path transform="translate(276.92307692307696,135)" d="M1.0716199492226188,0A1.0716199492226188,1.0716199492226188,0,1,1,-1.0716199492226188,0A1.0716199492226188,1.0716199492226188,0,1,1,1.0716199492226188,0" style="fill: #b279a2; stroke: black; stroke-width: 1; opacity: 0.8;"></path><path transform="translate(276.92307692307696,405)" d="M1.5894692492332634,0A1.5894692492332634,1.5894692492332634,0,1,1,-1.5894692492332634,0A1.5894692492332634,1.5894692492332634,0,1,1,1.5894692492332634,0" style="fill: #bab0ac; stroke: black; stroke-width: 1; opacity: 0.8;"></path><path transform="translate(276.92307692307696,225)" d="M1.0716199492226188,0A1.0716199492226188,1.0716199492226188,0,1,1,-1.0716199492226188,0A1.0716199492226188,1.0716199492226188,0,1,1,1.0716199492226188,0" style="fill: #b279a2; stroke: black; stroke-width: 1; opacity: 0.8;"></path><path transform="translate(276.92307692307696,525)" d="M2.954252324759405,0A2.954252324759405,2.954252324759405,0,1,1,-2.954252324759405,0A2.954252324759405,2.954252324759405,0,1,1,2.954252324759405,0" style="fill: #bab0ac; stroke: black; stroke-width: 1; opacity: 0.8;"></path><path transform="translate(276.92307692307696,435)" d="M1.975969552635976,0A1.975969552635976,1.975969552635976,0,1,1,-1.975969552635976,0A1.975969552635976,1.975969552635976,0,1,1,1.975969552635976,0" style="fill: #eeca3b; stroke: black; stroke-width: 1; opacity: 0.8;"></path><path transform="translate(276.92307692307696,255)" d="M6.303457647893521,0A6.303457647893521,6.303457647893521,0,1,1,-6.303457647893521,0A6.303457647893521,6.303457647893521,0,1,1,6.303457647893521,0" style="fill: #ff9da6; stroke: black; stroke-width: 1; opacity: 0.8;"></path><path transform="translate(276.92307692307696,15)" d="M4.840117151233688,0A4.840117151233688,4.840117151233688,0,1,1,-4.840117151233688,0A4.840117151233688,4.840117151233688,0,1,1,4.840117151233688,0" style="fill: #72b7b2; stroke: black; stroke-width: 1; opacity: 0.8;"></path><path transform="translate(276.92307692307696,285)" d="M4.887338924598464,0A4.887338924598464,4.887338924598464,0,1,1,-4.887338924598464,0A4.887338924598464,4.887338924598464,0,1,1,4.887338924598464,0" style="fill: #eeca3b; stroke: black; stroke-width: 1; opacity: 0.8;"></path><path transform="translate(276.92307692307696,195)" d="M0,0" style="fill: #4c78a8; stroke: black; stroke-width: 1; opacity: 0.8;"></path><path transform="translate(553.8461538461539,585)" d="M0.677751965123492,0A0.677751965123492,0.677751965123492,0,1,1,-0.677751965123492,0A0.677751965123492,0.677751965123492,0,1,1,0.677751965123492,0" style="fill: #eeca3b; stroke: black; stroke-width: 1; opacity: 0.8;"></path><path transform="translate(553.8461538461539,555)" d="M0.47924301050132967,0A0.47924301050132967,0.47924301050132967,0,1,1,-0.47924301050132967,0A0.47924301050132967,0.47924301050132967,0,1,1,0.47924301050132967,0" style="fill: #f58518; stroke: black; stroke-width: 1; opacity: 0.8;"></path><path transform="translate(553.8461538461539,345)" d="M0.830073243360568,0A0.830073243360568,0.830073243360568,0,1,1,-0.830073243360568,0A0.830073243360568,0.830073243360568,0,1,1,0.830073243360568,0" style="fill: #ff9da6; stroke: black; stroke-width: 1; opacity: 0.8;"></path><path transform="translate(553.8461538461539,315)" d="M0,0" style="fill: #4c78a8; stroke: black; stroke-width: 1; opacity: 0.8;"></path><path transform="translate(553.8461538461539,75)" d="M4.366111615441518,0A4.366111615441518,4.366111615441518,0,1,1,-4.366111615441518,0A4.366111615441518,4.366111615441518,0,1,1,4.366111615441518,0" style="fill: #ff9da6; stroke: black; stroke-width: 1; opacity: 0.8;"></path><path transform="translate(553.8461538461539,465)" d="M4.009634698823127,0A4.009634698823127,4.009634698823127,0,1,1,-4.009634698823127,0A4.009634698823127,4.009634698823127,0,1,1,4.009634698823127,0" style="fill: #b279a2; stroke: black; stroke-width: 1; opacity: 0.8;"></path><path transform="translate(553.8461538461539,45)" d="M5.315062103406548,0A5.315062103406548,5.315062103406548,0,1,1,-5.315062103406548,0A5.315062103406548,5.315062103406548,0,1,1,5.315062103406548,0" style="fill: #ff9da6; stroke: black; stroke-width: 1; opacity: 0.8;"></path><path transform="translate(553.8461538461539,105)" d="M2.088971852173498,0A2.088971852173498,2.088971852173498,0,1,1,-2.088971852173498,0A2.088971852173498,2.088971852173498,0,1,1,2.088971852173498,0" style="fill: #54a24b; stroke: black; stroke-width: 1; opacity: 0.8;"></path><path transform="translate(553.8461538461539,495)" d="M2.6683121550046773,0A2.6683121550046773,2.6683121550046773,0,1,1,-2.6683121550046773,0A2.6683121550046773,2.6683121550046773,0,1,1,2.6683121550046773,0" style="fill: #bab0ac; stroke: black; stroke-width: 1; opacity: 0.8;"></path><path transform="translate(553.8461538461539,165)" d="M10.597665736516255,0A10.597665736516255,10.597665736516255,0,1,1,-10.597665736516255,0A10.597665736516255,10.597665736516255,0,1,1,10.597665736516255,0" style="fill: #72b7b2; stroke: black; stroke-width: 1; opacity: 0.8;"></path><path transform="translate(553.8461538461539,375)" d="M0,0" style="fill: #4c78a8; stroke: black; stroke-width: 1; opacity: 0.8;"></path><path transform="translate(553.8461538461539,135)" d="M3.105849682583473,0A3.105849682583473,3.105849682583473,0,1,1,-3.105849682583473,0A3.105849682583473,3.105849682583473,0,1,1,3.105849682583473,0" style="fill: #9d755d; stroke: black; stroke-width: 1; opacity: 0.8;"></path><path transform="translate(553.8461538461539,405)" d="M3.0309989318003896,0A3.0309989318003896,3.0309989318003896,0,1,1,-3.0309989318003896,0A3.0309989318003896,3.0309989318003896,0,1,1,3.0309989318003896,0" style="fill: #72b7b2; stroke: black; stroke-width: 1; opacity: 0.8;"></path><path transform="translate(553.8461538461539,225)" d="M1.0716199492226188,0A1.0716199492226188,1.0716199492226188,0,1,1,-1.0716199492226188,0A1.0716199492226188,1.0716199492226188,0,1,1,1.0716199492226188,0" style="fill: #b279a2; stroke: black; stroke-width: 1; opacity: 0.8;"></path><path transform="translate(553.8461538461539,525)" d="M5.026343098374954,0A5.026343098374954,5.026343098374954,0,1,1,-5.026343098374954,0A5.026343098374954,5.026343098374954,0,1,1,5.026343098374954,0" style="fill: #4c78a8; stroke: black; stroke-width: 1; opacity: 0.8;"></path><path transform="translate(553.8461538461539,435)" d="M3.61820538354576,0A3.61820538354576,3.61820538354576,0,1,1,-3.61820538354576,0A3.61820538354576,3.61820538354576,0,1,1,3.61820538354576,0" style="fill: #72b7b2; stroke: black; stroke-width: 1; opacity: 0.8;"></path><path transform="translate(553.8461538461539,255)" d="M7.562327149461336,0A7.562327149461336,7.562327149461336,0,1,1,-7.562327149461336,0A7.562327149461336,7.562327149461336,0,1,1,7.562327149461336,0" style="fill: #ff9da6; stroke: black; stroke-width: 1; opacity: 0.8;"></path><path transform="translate(553.8461538461539,15)" d="M7.562327149461336,0A7.562327149461336,7.562327149461336,0,1,1,-7.562327149461336,0A7.562327149461336,7.562327149461336,0,1,1,7.562327149461336,0" style="fill: #ff9da6; stroke: black; stroke-width: 1; opacity: 0.8;"></path><path transform="translate(553.8461538461539,285)" d="M10.367611486621627,0A10.367611486621627,10.367611486621627,0,1,1,-10.367611486621627,0A10.367611486621627,10.367611486621627,0,1,1,10.367611486621627,0" style="fill: #f58518; stroke: black; stroke-width: 1; opacity: 0.8;"></path><path transform="translate(553.8461538461539,195)" d="M0,0" style="fill: #4c78a8; stroke: black; stroke-width: 1; opacity: 0.8;"></path><path transform="translate(646.1538461538461,585)" d="M0.677751965123492,0A0.677751965123492,0.677751965123492,0,1,1,-0.677751965123492,0A0.677751965123492,0.677751965123492,0,1,1,0.677751965123492,0" style="fill: #eeca3b; stroke: black; stroke-width: 1; opacity: 0.8;"></path><path transform="translate(646.1538461538461,555)" d="M0.47924301050132967,0A0.47924301050132967,0.47924301050132967,0,1,1,-0.47924301050132967,0A0.47924301050132967,0.47924301050132967,0,1,1,0.47924301050132967,0" style="fill: #f58518; stroke: black; stroke-width: 1; opacity: 0.8;"></path><path transform="translate(646.1538461538461,345)" d="M0.830073243360568,0A0.830073243360568,0.830073243360568,0,1,1,-0.830073243360568,0A0.830073243360568,0.830073243360568,0,1,1,0.830073243360568,0" style="fill: #ff9da6; stroke: black; stroke-width: 1; opacity: 0.8;"></path><path transform="translate(646.1538461538461,315)" d="M0.47924301050132967,0A0.47924301050132967,0.47924301050132967,0,1,1,-0.47924301050132967,0A0.47924301050132967,0.47924301050132967,0,1,1,0.47924301050132967,0" style="fill: #f58518; stroke: black; stroke-width: 1; opacity: 0.8;"></path><path transform="translate(646.1538461538461,75)" d="M4.646433377629716,0A4.646433377629716,4.646433377629716,0,1,1,-4.646433377629716,0A4.646433377629716,4.646433377629716,0,1,1,4.646433377629716,0" style="fill: #54a24b; stroke: black; stroke-width: 1; opacity: 0.8;"></path><path transform="translate(646.1538461538461,465)" d="M4.470081217489326,0A4.470081217489326,4.470081217489326,0,1,1,-4.470081217489326,0A4.470081217489326,4.470081217489326,0,1,1,4.470081217489326,0" style="fill: #bab0ac; stroke: black; stroke-width: 1; opacity: 0.8;"></path><path transform="translate(646.1538461538461,45)" d="M5.966527363779415,0A5.966527363779415,5.966527363779415,0,1,1,-5.966527363779415,0A5.966527363779415,5.966527363779415,0,1,1,5.966527363779415,0" style="fill: #e45756; stroke: black; stroke-width: 1; opacity: 0.8;"></path><path transform="translate(646.1538461538461,105)" d="M2.1432398984452377,0A2.1432398984452377,2.1432398984452377,0,1,1,-2.1432398984452377,0A2.1432398984452377,2.1432398984452377,0,1,1,2.1432398984452377,0" style="fill: #b279a2; stroke: black; stroke-width: 1; opacity: 0.8;"></path><path transform="translate(646.1538461538461,495)" d="M2.7944429401740947,0A2.7944429401740947,2.7944429401740947,0,1,1,-2.7944429401740947,0A2.7944429401740947,2.7944429401740947,0,1,1,2.7944429401740947,0" style="fill: #b279a2; stroke: black; stroke-width: 1; opacity: 0.8;"></path><path transform="translate(646.1538461538461,165)" d="M11.521783407099363,0A11.521783407099363,11.521783407099363,0,1,1,-11.521783407099363,0A11.521783407099363,11.521783407099363,0,1,1,11.521783407099363,0" style="fill: #eeca3b; stroke: black; stroke-width: 1; opacity: 0.8;"></path><path transform="translate(646.1538461538461,375)" d="M0,0" style="fill: #4c78a8; stroke: black; stroke-width: 1; opacity: 0.8;"></path><path transform="translate(646.1538461538461,135)" d="M3.4224796593746554,0A3.4224796593746554,3.4224796593746554,0,1,1,-3.4224796593746554,0A3.4224796593746554,3.4224796593746554,0,1,1,3.4224796593746554,0" style="fill: #9d755d; stroke: black; stroke-width: 1; opacity: 0.8;"></path><path transform="translate(646.1538461538461,405)" d="M3.5217025155706136,0A3.5217025155706136,3.5217025155706136,0,1,1,-3.5217025155706136,0A3.5217025155706136,3.5217025155706136,0,1,1,3.5217025155706136,0" style="fill: #4c78a8; stroke: black; stroke-width: 1; opacity: 0.8;"></path><path transform="translate(646.1538461538461,225)" d="M1.0716199492226188,0A1.0716199492226188,1.0716199492226188,0,1,1,-1.0716199492226188,0A1.0716199492226188,1.0716199492226188,0,1,1,1.0716199492226188,0" style="fill: #b279a2; stroke: black; stroke-width: 1; opacity: 0.8;"></path><path transform="translate(646.1538461538461,525)" d="M5.049138422116778,0A5.049138422116778,5.049138422116778,0,1,1,-5.049138422116778,0A5.049138422116778,5.049138422116778,0,1,1,5.049138422116778,0" style="fill: #f58518; stroke: black; stroke-width: 1; opacity: 0.8;"></path><path transform="translate(646.1538461538461,435)" d="M3.893388622466157,0A3.893388622466157,3.893388622466157,0,1,1,-3.893388622466157,0A3.893388622466157,3.893388622466157,0,1,1,3.893388622466157,0" style="fill: #e45756; stroke: black; stroke-width: 1; opacity: 0.8;"></path><path transform="translate(646.1538461538461,255)" d="M7.772015568633487,0A7.772015568633487,7.772015568633487,0,1,1,-7.772015568633487,0A7.772015568633487,7.772015568633487,0,1,1,7.772015568633487,0" style="fill: #f58518; stroke: black; stroke-width: 1; opacity: 0.8;"></path><path transform="translate(646.1538461538461,15)" d="M7.786777244932314,0A7.786777244932314,7.786777244932314,0,1,1,-7.786777244932314,0A7.786777244932314,7.786777244932314,0,1,1,7.786777244932314,0" style="fill: #e45756; stroke: black; stroke-width: 1; opacity: 0.8;"></path><path transform="translate(646.1538461538461,285)" d="M10.630124206813097,0A10.630124206813097,10.630124206813097,0,1,1,-10.630124206813097,0A10.630124206813097,10.630124206813097,0,1,1,10.630124206813097,0" style="fill: #eeca3b; stroke: black; stroke-width: 1; opacity: 0.8;"></path><path transform="translate(646.1538461538461,195)" d="M0,0" style="fill: #4c78a8; stroke: black; stroke-width: 1; opacity: 0.8;"></path><path transform="translate(738.4615384615385,585)" d="M0.677751965123492,0A0.677751965123492,0.677751965123492,0,1,1,-0.677751965123492,0A0.677751965123492,0.677751965123492,0,1,1,0.677751965123492,0" style="fill: #eeca3b; stroke: black; stroke-width: 1; opacity: 0.8;"></path><path transform="translate(738.4615384615385,555)" d="M0.47924301050132967,0A0.47924301050132967,0.47924301050132967,0,1,1,-0.47924301050132967,0A0.47924301050132967,0.47924301050132967,0,1,1,0.47924301050132967,0" style="fill: #f58518; stroke: black; stroke-width: 1; opacity: 0.8;"></path><path transform="translate(738.4615384615385,345)" d="M0.9584860210026593,0A0.9584860210026593,0.9584860210026593,0,1,1,-0.9584860210026593,0A0.9584860210026593,0.9584860210026593,0,1,1,0.9584860210026593,0" style="fill: #e45756; stroke: black; stroke-width: 1; opacity: 0.8;"></path><path transform="translate(738.4615384615385,315)" d="M0.830073243360568,0A0.830073243360568,0.830073243360568,0,1,1,-0.830073243360568,0A0.830073243360568,0.830073243360568,0,1,1,0.830073243360568,0" style="fill: #ff9da6; stroke: black; stroke-width: 1; opacity: 0.8;"></path><path transform="translate(738.4615384615385,75)" d="M5.183805743310813,0A5.183805743310813,5.183805743310813,0,1,1,-5.183805743310813,0A5.183805743310813,5.183805743310813,0,1,1,5.183805743310813,0" style="fill: #54a24b; stroke: black; stroke-width: 1; opacity: 0.8;"></path><path transform="translate(738.4615384615385,465)" d="M5.526900016665058,0A5.526900016665058,5.526900016665058,0,1,1,-5.526900016665058,0A5.526900016665058,5.526900016665058,0,1,1,5.526900016665058,0" style="fill: #72b7b2; stroke: black; stroke-width: 1; opacity: 0.8;"></path><path transform="translate(738.4615384615385,45)" d="M7.092148900160564,0A7.092148900160564,7.092148900160564,0,1,1,-7.092148900160564,0A7.092148900160564,7.092148900160564,0,1,1,7.092148900160564,0" style="fill: #e45756; stroke: black; stroke-width: 1; opacity: 0.8;"></path><path transform="translate(738.4615384615385,105)" d="M2.624922073782635,0A2.624922073782635,2.624922073782635,0,1,1,-2.624922073782635,0A2.624922073782635,2.624922073782635,0,1,1,2.624922073782635,0" style="fill: #9d755d; stroke: black; stroke-width: 1; opacity: 0.8;"></path><path transform="translate(738.4615384615385,495)" d="M3.0686525361613493,0A3.0686525361613493,3.0686525361613493,0,1,1,-3.0686525361613493,0A3.0686525361613493,3.0686525361613493,0,1,1,3.0686525361613493,0" style="fill: #eeca3b; stroke: black; stroke-width: 1; opacity: 0.8;"></path><path transform="translate(738.4615384615385,165)" d="M12.670518155030202,0A12.670518155030202,12.670518155030202,0,1,1,-12.670518155030202,0A12.670518155030202,12.670518155030202,0,1,1,12.670518155030202,0" style="fill: #54a24b; stroke: black; stroke-width: 1; opacity: 0.8;"></path><path transform="translate(738.4615384615385,375)" d="M0,0" style="fill: #4c78a8; stroke: black; stroke-width: 1; opacity: 0.8;"></path><path transform="translate(738.4615384615385,135)" d="M3.8339440840106374,0A3.8339440840106374,3.8339440840106374,0,1,1,-3.8339440840106374,0A3.8339440840106374,3.8339440840106374,0,1,1,3.8339440840106374,0" style="fill: #4c78a8; stroke: black; stroke-width: 1; opacity: 0.8;"></path><path transform="translate(738.4615384615385,405)" d="M3.951939105271952,0A3.951939105271952,3.951939105271952,0,1,1,-3.951939105271952,0A3.951939105271952,3.951939105271952,0,1,1,3.951939105271952,0" style="fill: #72b7b2; stroke: black; stroke-width: 1; opacity: 0.8;"></path><path transform="translate(738.4615384615385,225)" d="M1.1739008385235379,0A1.1739008385235379,1.1739008385235379,0,1,1,-1.1739008385235379,0A1.1739008385235379,1.1739008385235379,0,1,1,1.1739008385235379,0" style="fill: #ff9da6; stroke: black; stroke-width: 1; opacity: 0.8;"></path><path transform="translate(738.4615384615385,525)" d="M5.810512703523976,0A5.810512703523976,5.810512703523976,0,1,1,-5.810512703523976,0A5.810512703523976,5.810512703523976,0,1,1,5.810512703523976,0" style="fill: #bab0ac; stroke: black; stroke-width: 1; opacity: 0.8;"></path><path transform="translate(738.4615384615385,435)" d="M4.470081217489326,0A4.470081217489326,4.470081217489326,0,1,1,-4.470081217489326,0A4.470081217489326,4.470081217489326,0,1,1,4.470081217489326,0" style="fill: #bab0ac; stroke: black; stroke-width: 1; opacity: 0.8;"></path><path transform="translate(738.4615384615385,255)" d="M8.952998281409295,0A8.952998281409295,8.952998281409295,0,1,1,-8.952998281409295,0A8.952998281409295,8.952998281409295,0,1,1,8.952998281409295,0" style="fill: #ff9da6; stroke: black; stroke-width: 1; opacity: 0.8;"></path><path transform="translate(738.4615384615385,15)" d="M8.69268088478061,0A8.69268088478061,8.69268088478061,0,1,1,-8.69268088478061,0A8.69268088478061,8.69268088478061,0,1,1,8.69268088478061,0" style="fill: #e45756; stroke: black; stroke-width: 1; opacity: 0.8;"></path><path transform="translate(738.4615384615385,285)" d="M11.511812151742047,0A11.511812151742047,11.511812151742047,0,1,1,-11.511812151742047,0A11.511812151742047,11.511812151742047,0,1,1,11.511812151742047,0" style="fill: #54a24b; stroke: black; stroke-width: 1; opacity: 0.8;"></path><path transform="translate(738.4615384615385,195)" d="M0,0" style="fill: #4c78a8; stroke: black; stroke-width: 1; opacity: 0.8;"></path><path transform="translate(830.7692307692307,585)" d="M0.677751965123492,0A0.677751965123492,0.677751965123492,0,1,1,-0.677751965123492,0A0.677751965123492,0.677751965123492,0,1,1,0.677751965123492,0" style="fill: #eeca3b; stroke: black; stroke-width: 1; opacity: 0.8;"></path><path transform="translate(830.7692307692307,555)" d="M0.47924301050132967,0A0.47924301050132967,0.47924301050132967,0,1,1,-0.47924301050132967,0A0.47924301050132967,0.47924301050132967,0,1,1,0.47924301050132967,0" style="fill: #f58518; stroke: black; stroke-width: 1; opacity: 0.8;"></path><path transform="translate(830.7692307692307,345)" d="M1.1739008385235379,0A1.1739008385235379,1.1739008385235379,0,1,1,-1.1739008385235379,0A1.1739008385235379,1.1739008385235379,0,1,1,1.1739008385235379,0" style="fill: #ff9da6; stroke: black; stroke-width: 1; opacity: 0.8;"></path><path transform="translate(830.7692307692307,315)" d="M1.0716199492226188,0A1.0716199492226188,1.0716199492226188,0,1,1,-1.0716199492226188,0A1.0716199492226188,1.0716199492226188,0,1,1,1.0716199492226188,0" style="fill: #b279a2; stroke: black; stroke-width: 1; opacity: 0.8;"></path><path transform="translate(830.7692307692307,75)" d="M5.966527363779415,0A5.966527363779415,5.966527363779415,0,1,1,-5.966527363779415,0A5.966527363779415,5.966527363779415,0,1,1,5.966527363779415,0" style="fill: #e45756; stroke: black; stroke-width: 1; opacity: 0.8;"></path><path transform="translate(830.7692307692307,465)" d="M6.285213159127775,0A6.285213159127775,6.285213159127775,0,1,1,-6.285213159127775,0A6.285213159127775,6.285213159127775,0,1,1,6.285213159127775,0" style="fill: #b279a2; stroke: black; stroke-width: 1; opacity: 0.8;"></path><path transform="translate(830.7692307692307,45)" d="M7.903878210543904,0A7.903878210543904,7.903878210543904,0,1,1,-7.903878210543904,0A7.903878210543904,7.903878210543904,0,1,1,7.903878210543904,0" style="fill: #54a24b; stroke: black; stroke-width: 1; opacity: 0.8;"></path><path transform="translate(830.7692307692307,105)" d="M2.7530414967403707,0A2.7530414967403707,2.7530414967403707,0,1,1,-2.7530414967403707,0A2.7530414967403707,2.7530414967403707,0,1,1,2.7530414967403707,0" style="fill: #72b7b2; stroke: black; stroke-width: 1; opacity: 0.8;"></path><path transform="translate(830.7692307692307,495)" d="M3.554161289431132,0A3.554161289431132,3.554161289431132,0,1,1,-3.554161289431132,0A3.554161289431132,3.554161289431132,0,1,1,3.554161289431132,0" style="fill: #e45756; stroke: black; stroke-width: 1; opacity: 0.8;"></path><path transform="translate(830.7692307692307,165)" d="M14.464884696989394,0A14.464884696989394,14.464884696989394,0,1,1,-14.464884696989394,0A14.464884696989394,14.464884696989394,0,1,1,14.464884696989394,0" style="fill: #72b7b2; stroke: black; stroke-width: 1; opacity: 0.8;"></path><path transform="translate(830.7692307692307,375)" d="M0,0" style="fill: #4c78a8; stroke: black; stroke-width: 1; opacity: 0.8;"></path><path transform="translate(830.7692307692307,135)" d="M4.418402241163891,0A4.418402241163891,4.418402241163891,0,1,1,-4.418402241163891,0A4.418402241163891,4.418402241163891,0,1,1,4.418402241163891,0" style="fill: #9d755d; stroke: black; stroke-width: 1; opacity: 0.8;"></path><path transform="translate(830.7692307692307,405)" d="M4.719996262932273,0A4.719996262932273,4.719996262932273,0,1,1,-4.719996262932273,0A4.719996262932273,4.719996262932273,0,1,1,4.719996262932273,0" style="fill: #b279a2; stroke: black; stroke-width: 1; opacity: 0.8;"></path><path transform="translate(830.7692307692307,225)" d="M1.1739008385235379,0A1.1739008385235379,1.1739008385235379,0,1,1,-1.1739008385235379,0A1.1739008385235379,1.1739008385235379,0,1,1,1.1739008385235379,0" style="fill: #ff9da6; stroke: black; stroke-width: 1; opacity: 0.8;"></path><path transform="translate(830.7692307692307,525)" d="M6.9778835602385945,0A6.9778835602385945,6.9778835602385945,0,1,1,-6.9778835602385945,0A6.9778835602385945,6.9778835602385945,0,1,1,6.9778835602385945,0" style="fill: #bab0ac; stroke: black; stroke-width: 1; opacity: 0.8;"></path><path transform="translate(830.7692307692307,435)" d="M5.116915124861761,0A5.116915124861761,5.116915124861761,0,1,1,-5.116915124861761,0A5.116915124861761,5.116915124861761,0,1,1,5.116915124861761,0" style="fill: #e45756; stroke: black; stroke-width: 1; opacity: 0.8;"></path><path transform="translate(830.7692307692307,255)" d="M9.548849336773928,0A9.548849336773928,9.548849336773928,0,1,1,-9.548849336773928,0A9.548849336773928,9.548849336773928,0,1,1,9.548849336773928,0" style="fill: #f58518; stroke: black; stroke-width: 1; opacity: 0.8;"></path><path transform="translate(830.7692307692307,15)" d="M9.774677849196928,0A9.774677849196928,9.774677849196928,0,1,1,-9.774677849196928,0A9.774677849196928,9.774677849196928,0,1,1,9.774677849196928,0" style="fill: #ff9da6; stroke: black; stroke-width: 1; opacity: 0.8;"></path><path transform="translate(830.7692307692307,285)" d="M12.868366458314211,0A12.868366458314211,12.868366458314211,0,1,1,-12.868366458314211,0A12.868366458314211,12.868366458314211,0,1,1,12.868366458314211,0" style="fill: #bab0ac; stroke: black; stroke-width: 1; opacity: 0.8;"></path><path transform="translate(830.7692307692307,195)" d="M0.47924301050132967,0A0.47924301050132967,0.47924301050132967,0,1,1,-0.47924301050132967,0A0.47924301050132967,0.47924301050132967,0,1,1,0.47924301050132967,0" style="fill: #f58518; stroke: black; stroke-width: 1; opacity: 0.8;"></path><path transform="translate(923.0769230769231,585)" d="M0.677751965123492,0A0.677751965123492,0.677751965123492,0,1,1,-0.677751965123492,0A0.677751965123492,0.677751965123492,0,1,1,0.677751965123492,0" style="fill: #eeca3b; stroke: black; stroke-width: 1; opacity: 0.8;"></path><path transform="translate(923.0769230769231,555)" d="M0.47924301050132967,0A0.47924301050132967,0.47924301050132967,0,1,1,-0.47924301050132967,0A0.47924301050132967,0.47924301050132967,0,1,1,0.47924301050132967,0" style="fill: #f58518; stroke: black; stroke-width: 1; opacity: 0.8;"></path><path transform="translate(923.0769230769231,345)" d="M1.5154994659001948,0A1.5154994659001948,1.5154994659001948,0,1,1,-1.5154994659001948,0A1.5154994659001948,1.5154994659001948,0,1,1,1.5154994659001948,0" style="fill: #e45756; stroke: black; stroke-width: 1; opacity: 0.8;"></path><path transform="translate(923.0769230769231,315)" d="M1.1739008385235379,0A1.1739008385235379,1.1739008385235379,0,1,1,-1.1739008385235379,0A1.1739008385235379,1.1739008385235379,0,1,1,1.1739008385235379,0" style="fill: #ff9da6; stroke: black; stroke-width: 1; opacity: 0.8;"></path><path transform="translate(923.0769230769231,75)" d="M6.465341683686696,0A6.465341683686696,6.465341683686696,0,1,1,-6.465341683686696,0A6.465341683686696,6.465341683686696,0,1,1,6.465341683686696,0" style="fill: #e45756; stroke: black; stroke-width: 1; opacity: 0.8;"></path><path transform="translate(923.0769230769231,465)" d="M7.010720840717936,0A7.010720840717936,7.010720840717936,0,1,1,-7.010720840717936,0A7.010720840717936,7.010720840717936,0,1,1,7.010720840717936,0" style="fill: #4c78a8; stroke: black; stroke-width: 1; opacity: 0.8;"></path><path transform="translate(923.0769230769231,45)" d="M8.823799612172412,0A8.823799612172412,8.823799612172412,0,1,1,-8.823799612172412,0A8.823799612172412,8.823799612172412,0,1,1,8.823799612172412,0" style="fill: #eeca3b; stroke: black; stroke-width: 1; opacity: 0.8;"></path><path transform="translate(923.0769230769231,105)" d="M3.5217025155706136,0A3.5217025155706136,3.5217025155706136,0,1,1,-3.5217025155706136,0A3.5217025155706136,3.5217025155706136,0,1,1,3.5217025155706136,0" style="fill: #4c78a8; stroke: black; stroke-width: 1; opacity: 0.8;"></path><path transform="translate(923.0769230769231,495)" d="M4.339730034849975,0A4.339730034849975,4.339730034849975,0,1,1,-4.339730034849975,0A4.339730034849975,4.339730034849975,0,1,1,4.339730034849975,0" style="fill: #b279a2; stroke: black; stroke-width: 1; opacity: 0.8;"></path><path transform="translate(923.0769230769231,165)" d="M15.78594759522214,0A15.78594759522214,15.78594759522214,0,1,1,-15.78594759522214,0A15.78594759522214,15.78594759522214,0,1,1,15.78594759522214,0" style="fill: #9d755d; stroke: black; stroke-width: 1; opacity: 0.8;"></path><path transform="translate(923.0769230769231,375)" d="M0.47924301050132967,0A0.47924301050132967,0.47924301050132967,0,1,1,-0.47924301050132967,0A0.47924301050132967,0.47924301050132967,0,1,1,0.47924301050132967,0" style="fill: #f58518; stroke: black; stroke-width: 1; opacity: 0.8;"></path><path transform="translate(923.0769230769231,135)" d="M4.934108783774839,0A4.934108783774839,4.934108783774839,0,1,1,-4.934108783774839,0A4.934108783774839,4.934108783774839,0,1,1,4.934108783774839,0" style="fill: #b279a2; stroke: black; stroke-width: 1; opacity: 0.8;"></path><path transform="translate(923.0769230769231,405)" d="M5.40079444299873,0A5.40079444299873,5.40079444299873,0,1,1,-5.40079444299873,0A5.40079444299873,5.40079444299873,0,1,1,5.40079444299873,0" style="fill: #bab0ac; stroke: black; stroke-width: 1; opacity: 0.8;"></path><path transform="translate(923.0769230769231,225)" d="M1.2679578233524342,0A1.2679578233524342,1.2679578233524342,0,1,1,-1.2679578233524342,0A1.2679578233524342,1.2679578233524342,0,1,1,1.2679578233524342,0" style="fill: #eeca3b; stroke: black; stroke-width: 1; opacity: 0.8;"></path><path transform="translate(923.0769230769231,525)" d="M8.033576758526683,0A8.033576758526683,8.033576758526683,0,1,1,-8.033576758526683,0A8.033576758526683,8.033576758526683,0,1,1,8.033576758526683,0" style="fill: #eeca3b; stroke: black; stroke-width: 1; opacity: 0.8;"></path><path transform="translate(923.0769230769231,435)" d="M5.464211032241442,0A5.464211032241442,5.464211032241442,0,1,1,-5.464211032241442,0A5.464211032241442,5.464211032241442,0,1,1,5.464211032241442,0" style="fill: #e45756; stroke: black; stroke-width: 1; opacity: 0.8;"></path><path transform="translate(923.0769230769231,255)" d="M10.345434752164838,0A10.345434752164838,10.345434752164838,0,1,1,-10.345434752164838,0A10.345434752164838,10.345434752164838,0,1,1,10.345434752164838,0" style="fill: #4c78a8; stroke: black; stroke-width: 1; opacity: 0.8;"></path><path transform="translate(923.0769230769231,15)" d="M10.211362977287969,0A10.211362977287969,10.211362977287969,0,1,1,-10.211362977287969,0A10.211362977287969,10.211362977287969,0,1,1,10.211362977287969,0" style="fill: #bab0ac; stroke: black; stroke-width: 1; opacity: 0.8;"></path><path transform="translate(923.0769230769231,285)" d="M14.763485228615373,0A14.763485228615373,14.763485228615373,0,1,1,-14.763485228615373,0A14.763485228615373,14.763485228615373,0,1,1,14.763485228615373,0" style="fill: #eeca3b; stroke: black; stroke-width: 1; opacity: 0.8;"></path><path transform="translate(923.0769230769231,195)" d="M0.830073243360568,0A0.830073243360568,0.830073243360568,0,1,1,-0.830073243360568,0A0.830073243360568,0.830073243360568,0,1,1,0.830073243360568,0" style="fill: #ff9da6; stroke: black; stroke-width: 1; opacity: 0.8;"></path><path transform="translate(1015.3846153846154,585)" d="M0.677751965123492,0A0.677751965123492,0.677751965123492,0,1,1,-0.677751965123492,0A0.677751965123492,0.677751965123492,0,1,1,0.677751965123492,0" style="fill: #eeca3b; stroke: black; stroke-width: 1; opacity: 0.8;"></path><path transform="translate(1015.3846153846154,555)" d="M0.830073243360568,0A0.830073243360568,0.830073243360568,0,1,1,-0.830073243360568,0A0.830073243360568,0.830073243360568,0,1,1,0.830073243360568,0" style="fill: #ff9da6; stroke: black; stroke-width: 1; opacity: 0.8;"></path><path transform="translate(1015.3846153846154,345)" d="M1.856100198457956,0A1.856100198457956,1.856100198457956,0,1,1,-1.856100198457956,0A1.856100198457956,1.856100198457956,0,1,1,1.856100198457956,0" style="fill: #4c78a8; stroke: black; stroke-width: 1; opacity: 0.8;"></path><path transform="translate(1015.3846153846154,315)" d="M1.437729031503989,0A1.437729031503989,1.437729031503989,0,1,1,-1.437729031503989,0A1.437729031503989,1.437729031503989,0,1,1,1.437729031503989,0" style="fill: #f58518; stroke: black; stroke-width: 1; opacity: 0.8;"></path><path transform="translate(1015.3846153846154,75)" d="M6.895106211268697,0A6.895106211268697,6.895106211268697,0,1,1,-6.895106211268697,0A6.895106211268697,6.895106211268697,0,1,1,6.895106211268697,0" style="fill: #9d755d; stroke: black; stroke-width: 1; opacity: 0.8;"></path><path transform="translate(1015.3846153846154,465)" d="M7.470659190245112,0A7.470659190245112,7.470659190245112,0,1,1,-7.470659190245112,0A7.470659190245112,7.470659190245112,0,1,1,7.470659190245112,0" style="fill: #eeca3b; stroke: black; stroke-width: 1; opacity: 0.8;"></path><path transform="translate(1015.3846153846154,45)" d="M9.727570693812693,0A9.727570693812693,9.727570693812693,0,1,1,-9.727570693812693,0A9.727570693812693,9.727570693812693,0,1,1,9.727570693812693,0" style="fill: #b279a2; stroke: black; stroke-width: 1; opacity: 0.8;"></path><path transform="translate(1015.3846153846154,105)" d="M4.038173384232134,0A4.038173384232134,4.038173384232134,0,1,1,-4.038173384232134,0A4.038173384232134,4.038173384232134,0,1,1,4.038173384232134,0" style="fill: #ff9da6; stroke: black; stroke-width: 1; opacity: 0.8;"></path><path transform="translate(1015.3846153846154,495)" d="M4.744263755864444,0A4.744263755864444,4.744263755864444,0,1,1,-4.744263755864444,0A4.744263755864444,4.744263755864444,0,1,1,4.744263755864444,0" style="fill: #ff9da6; stroke: black; stroke-width: 1; opacity: 0.8;"></path><path transform="translate(1015.3846153846154,165)" d="M17.790182218617442,0A17.790182218617442,17.790182218617442,0,1,1,-17.790182218617442,0A17.790182218617442,17.790182218617442,0,1,1,17.790182218617442,0" style="fill: #eeca3b; stroke: black; stroke-width: 1; opacity: 0.8;"></path><path transform="translate(1015.3846153846154,375)" d="M0.47924301050132967,0A0.47924301050132967,0.47924301050132967,0,1,1,-0.47924301050132967,0A0.47924301050132967,0.47924301050132967,0,1,1,0.47924301050132967,0" style="fill: #f58518; stroke: black; stroke-width: 1; opacity: 0.8;"></path><path transform="translate(1015.3846153846154,135)" d="M5.13930873349261,0A5.13930873349261,5.13930873349261,0,1,1,-5.13930873349261,0A5.13930873349261,5.13930873349261,0,1,1,5.13930873349261,0" style="fill: #72b7b2; stroke: black; stroke-width: 1; opacity: 0.8;"></path><path transform="translate(1015.3846153846154,405)" d="M5.730912878883782,0A5.730912878883782,5.730912878883782,0,1,1,-5.730912878883782,0A5.730912878883782,5.730912878883782,0,1,1,5.730912878883782,0" style="fill: #b279a2; stroke: black; stroke-width: 1; opacity: 0.8;"></path><path transform="translate(1015.3846153846154,225)" d="M1.2679578233524342,0A1.2679578233524342,1.2679578233524342,0,1,1,-1.2679578233524342,0A1.2679578233524342,1.2679578233524342,0,1,1,1.2679578233524342,0" style="fill: #eeca3b; stroke: black; stroke-width: 1; opacity: 0.8;"></path><path transform="translate(1015.3846153846154,525)" d="M8.705881622658593,0A8.705881622658593,8.705881622658593,0,1,1,-8.705881622658593,0A8.705881622658593,8.705881622658593,0,1,1,8.705881622658593,0" style="fill: #54a24b; stroke: black; stroke-width: 1; opacity: 0.8;"></path><path transform="translate(1015.3846153846154,435)" d="M5.750916126015956,0A5.750916126015956,5.750916126015956,0,1,1,-5.750916126015956,0A5.750916126015956,5.750916126015956,0,1,1,5.750916126015956,0" style="fill: #ff9da6; stroke: black; stroke-width: 1; opacity: 0.8;"></path><path transform="translate(1015.3846153846154,255)" d="M10.790952163687384,0A10.790952163687384,10.790952163687384,0,1,1,-10.790952163687384,0A10.790952163687384,10.790952163687384,0,1,1,10.790952163687384,0" style="fill: #ff9da6; stroke: black; stroke-width: 1; opacity: 0.8;"></path><path transform="translate(1015.3846153846154,15)" d="M10.95990102185323,0A10.95990102185323,10.95990102185323,0,1,1,-10.95990102185323,0A10.95990102185323,10.95990102185323,0,1,1,10.95990102185323,0" style="fill: #bab0ac; stroke: black; stroke-width: 1; opacity: 0.8;"></path><path transform="translate(1015.3846153846154,285)" d="M16.663604067106327,0A16.663604067106327,16.663604067106327,0,1,1,-16.663604067106327,0A16.663604067106327,16.663604067106327,0,1,1,16.663604067106327,0" style="fill: #b279a2; stroke: black; stroke-width: 1; opacity: 0.8;"></path><path transform="translate(1015.3846153846154,195)" d="M1.1739008385235379,0A1.1739008385235379,1.1739008385235379,0,1,1,-1.1739008385235379,0A1.1739008385235379,1.1739008385235379,0,1,1,1.1739008385235379,0" style="fill: #ff9da6; stroke: black; stroke-width: 1; opacity: 0.8;"></path><path transform="translate(1107.6923076923078,585)" d="M0.677751965123492,0A0.677751965123492,0.677751965123492,0,1,1,-0.677751965123492,0A0.677751965123492,0.677751965123492,0,1,1,0.677751965123492,0" style="fill: #eeca3b; stroke: black; stroke-width: 1; opacity: 0.8;"></path><path transform="translate(1107.6923076923078,555)" d="M0.830073243360568,0A0.830073243360568,0.830073243360568,0,1,1,-0.830073243360568,0A0.830073243360568,0.830073243360568,0,1,1,0.830073243360568,0" style="fill: #ff9da6; stroke: black; stroke-width: 1; opacity: 0.8;"></path><path transform="translate(1107.6923076923078,345)" d="M1.9169720420053187,0A1.9169720420053187,1.9169720420053187,0,1,1,-1.9169720420053187,0A1.9169720420053187,1.9169720420053187,0,1,1,1.9169720420053187,0" style="fill: #54a24b; stroke: black; stroke-width: 1; opacity: 0.8;"></path><path transform="translate(1107.6923076923078,315)" d="M1.437729031503989,0A1.437729031503989,1.437729031503989,0,1,1,-1.437729031503989,0A1.437729031503989,1.437729031503989,0,1,1,1.437729031503989,0" style="fill: #f58518; stroke: black; stroke-width: 1; opacity: 0.8;"></path><path transform="translate(1107.6923076923078,75)" d="M7.3153270675787265,0A7.3153270675787265,7.3153270675787265,0,1,1,-7.3153270675787265,0A7.3153270675787265,7.3153270675787265,0,1,1,7.3153270675787265,0" style="fill: #54a24b; stroke: black; stroke-width: 1; opacity: 0.8;"></path><path transform="translate(1107.6923076923078,465)" d="M7.757225801532847,0A7.757225801532847,7.757225801532847,0,1,1,-7.757225801532847,0A7.757225801532847,7.757225801532847,0,1,1,7.757225801532847,0" style="fill: #4c78a8; stroke: black; stroke-width: 1; opacity: 0.8;"></path><path transform="translate(1107.6923076923078,45)" d="M10.790952163687384,0A10.790952163687384,10.790952163687384,0,1,1,-10.790952163687384,0A10.790952163687384,10.790952163687384,0,1,1,10.790952163687384,0" style="fill: #ff9da6; stroke: black; stroke-width: 1; opacity: 0.8;"></path><path transform="translate(1107.6923076923078,105)" d="M4.546498397700584,0A4.546498397700584,4.546498397700584,0,1,1,-4.546498397700584,0A4.546498397700584,4.546498397700584,0,1,1,4.546498397700584,0" style="fill: #e45756; stroke: black; stroke-width: 1; opacity: 0.8;"></path><path transform="translate(1107.6923076923078,495)" d="M4.980439460163408,0A4.980439460163408,4.980439460163408,0,1,1,-4.980439460163408,0A4.980439460163408,4.980439460163408,0,1,1,4.980439460163408,0" style="fill: #ff9da6; stroke: black; stroke-width: 1; opacity: 0.8;"></path><path transform="translate(1107.6923076923078,165)" d="M18.825163233966517,0A18.825163233966517,18.825163233966517,0,1,1,-18.825163233966517,0A18.825163233966517,18.825163233966517,0,1,1,18.825163233966517,0" style="fill: #f58518; stroke: black; stroke-width: 1; opacity: 0.8;"></path><path transform="translate(1107.6923076923078,375)" d="M0.47924301050132967,0A0.47924301050132967,0.47924301050132967,0,1,1,-0.47924301050132967,0A0.47924301050132967,0.47924301050132967,0,1,1,0.47924301050132967,0" style="fill: #f58518; stroke: black; stroke-width: 1; opacity: 0.8;"></path><path transform="translate(1107.6923076923078,135)" d="M5.379489450906245,0A5.379489450906245,5.379489450906245,0,1,1,-5.379489450906245,0A5.379489450906245,5.379489450906245,0,1,1,5.379489450906245,0" style="fill: #9d755d; stroke: black; stroke-width: 1; opacity: 0.8;"></path><path transform="translate(1107.6923076923078,405)" d="M5.985743282654453,0A5.985743282654453,5.985743282654453,0,1,1,-5.985743282654453,0A5.985743282654453,5.985743282654453,0,1,1,5.985743282654453,0" style="fill: #72b7b2; stroke: black; stroke-width: 1; opacity: 0.8;"></path><path transform="translate(1107.6923076923078,225)" d="M1.5894692492332634,0A1.5894692492332634,1.5894692492332634,0,1,1,-1.5894692492332634,0A1.5894692492332634,1.5894692492332634,0,1,1,1.5894692492332634,0" style="fill: #bab0ac; stroke: black; stroke-width: 1; opacity: 0.8;"></path><path transform="translate(1107.6923076923078,525)" d="M9.64457954300357,0A9.64457954300357,9.64457954300357,0,1,1,-9.64457954300357,0A9.64457954300357,9.64457954300357,0,1,1,9.64457954300357,0" style="fill: #54a24b; stroke: black; stroke-width: 1; opacity: 0.8;"></path><path transform="translate(1107.6923076923078,435)" d="M6.39389925118931,0A6.39389925118931,6.39389925118931,0,1,1,-6.39389925118931,0A6.39389925118931,6.39389925118931,0,1,1,6.39389925118931,0" style="fill: #4c78a8; stroke: black; stroke-width: 1; opacity: 0.8;"></path><path transform="translate(1107.6923076923078,255)" d="M11.591342024196805,0A11.591342024196805,11.591342024196805,0,1,1,-11.591342024196805,0A11.591342024196805,11.591342024196805,0,1,1,11.591342024196805,0" style="fill: #b279a2; stroke: black; stroke-width: 1; opacity: 0.8;"></path><path transform="translate(1107.6923076923078,15)" d="M11.913792318346218,0A11.913792318346218,11.913792318346218,0,1,1,-11.913792318346218,0A11.913792318346218,11.913792318346218,0,1,1,11.913792318346218,0" style="fill: #bab0ac; stroke: black; stroke-width: 1; opacity: 0.8;"></path><path transform="translate(1107.6923076923078,285)" d="M20.1167926570697,0A20.1167926570697,20.1167926570697,0,1,1,-20.1167926570697,0A20.1167926570697,20.1167926570697,0,1,1,20.1167926570697,0" style="fill: #bab0ac; stroke: black; stroke-width: 1; opacity: 0.8;"></path><path transform="translate(1107.6923076923078,195)" d="M2.033255895370476,0A2.033255895370476,2.033255895370476,0,1,1,-2.033255895370476,0A2.033255895370476,2.033255895370476,0,1,1,2.033255895370476,0" style="fill: #f58518; stroke: black; stroke-width: 1; opacity: 0.8;"></path><path transform="translate(1200,585)" d="M0.830073243360568,0A0.830073243360568,0.830073243360568,0,1,1,-0.830073243360568,0A0.830073243360568,0.830073243360568,0,1,1,0.830073243360568,0" style="fill: #ff9da6; stroke: black; stroke-width: 1; opacity: 0.8;"></path><path transform="translate(1200,555)" d="M0.830073243360568,0A0.830073243360568,0.830073243360568,0,1,1,-0.830073243360568,0A0.830073243360568,0.830073243360568,0,1,1,0.830073243360568,0" style="fill: #ff9da6; stroke: black; stroke-width: 1; opacity: 0.8;"></path><path transform="translate(1200,345)" d="M2.088971852173498,0A2.088971852173498,2.088971852173498,0,1,1,-2.088971852173498,0A2.088971852173498,2.088971852173498,0,1,1,2.088971852173498,0" style="fill: #54a24b; stroke: black; stroke-width: 1; opacity: 0.8;"></path><path transform="translate(1200,315)" d="M1.660146486721136,0A1.660146486721136,1.660146486721136,0,1,1,-1.660146486721136,0A1.660146486721136,1.660146486721136,0,1,1,1.660146486721136,0" style="fill: #eeca3b; stroke: black; stroke-width: 1; opacity: 0.8;"></path><path transform="translate(1200,75)" d="M7.531895126012527,0A7.531895126012527,7.531895126012527,0,1,1,-7.531895126012527,0A7.531895126012527,7.531895126012527,0,1,1,7.531895126012527,0" style="fill: #b279a2; stroke: black; stroke-width: 1; opacity: 0.8;"></path><path transform="translate(1200,465)" d="M8.451542547285166,0A8.451542547285166,8.451542547285166,0,1,1,-8.451542547285166,0A8.451542547285166,8.451542547285166,0,1,1,8.451542547285166,0" style="fill: #4c78a8; stroke: black; stroke-width: 1; opacity: 0.8;"></path><path transform="translate(1200,45)" d="M11.229022702345619,0A11.229022702345619,11.229022702345619,0,1,1,-11.229022702345619,0A11.229022702345619,11.229022702345619,0,1,1,11.229022702345619,0" style="fill: #f58518; stroke: black; stroke-width: 1; opacity: 0.8;"></path><path transform="translate(1200,105)" d="M4.863785346906346,0A4.863785346906346,4.863785346906346,0,1,1,-4.863785346906346,0A4.863785346906346,4.863785346906346,0,1,1,4.863785346906346,0" style="fill: #54a24b; stroke: black; stroke-width: 1; opacity: 0.8;"></path><path transform="translate(1200,495)" d="M5.379489450906245,0A5.379489450906245,5.379489450906245,0,1,1,-5.379489450906245,0A5.379489450906245,5.379489450906245,0,1,1,5.379489450906245,0" style="fill: #9d755d; stroke: black; stroke-width: 1; opacity: 0.8;"></path><path transform="translate(1200,165)" d="M20.445205571677853,0A20.445205571677853,20.445205571677853,0,1,1,-20.445205571677853,0A20.445205571677853,20.445205571677853,0,1,1,20.445205571677853,0" style="fill: #72b7b2; stroke: black; stroke-width: 1; opacity: 0.8;"></path><path transform="translate(1200,375)" d="M0.830073243360568,0A0.830073243360568,0.830073243360568,0,1,1,-0.830073243360568,0A0.830073243360568,0.830073243360568,0,1,1,0.830073243360568,0" style="fill: #ff9da6; stroke: black; stroke-width: 1; opacity: 0.8;"></path><path transform="translate(1200,135)" d="M5.770850037176911,0A5.770850037176911,5.770850037176911,0,1,1,-5.770850037176911,0A5.770850037176911,5.770850037176911,0,1,1,5.770850037176911,0" style="fill: #9d755d; stroke: black; stroke-width: 1; opacity: 0.8;"></path><path transform="translate(1200,405)" d="M6.321649482682641,0A6.321649482682641,6.321649482682641,0,1,1,-6.321649482682641,0A6.321649482682641,6.321649482682641,0,1,1,6.321649482682641,0" style="fill: #9d755d; stroke: black; stroke-width: 1; opacity: 0.8;"></path><path transform="translate(1200,225)" d="M1.5894692492332634,0A1.5894692492332634,1.5894692492332634,0,1,1,-1.5894692492332634,0A1.5894692492332634,1.5894692492332634,0,1,1,1.5894692492332634,0" style="fill: #bab0ac; stroke: black; stroke-width: 1; opacity: 0.8;"></path><path transform="translate(1200,525)" d="M10.477791111139432,0A10.477791111139432,10.477791111139432,0,1,1,-10.477791111139432,0A10.477791111139432,10.477791111139432,0,1,1,10.477791111139432,0" style="fill: #e45756; stroke: black; stroke-width: 1; opacity: 0.8;"></path><path transform="translate(1200,435)" d="M6.77751965123492,0A6.77751965123492,6.77751965123492,0,1,1,-6.77751965123492,0A6.77751965123492,6.77751965123492,0,1,1,6.77751965123492,0" style="fill: #ff9da6; stroke: black; stroke-width: 1; opacity: 0.8;"></path><path transform="translate(1200,255)" d="M11.855817315815857,0A11.855817315815857,11.855817315815857,0,1,1,-11.855817315815857,0A11.855817315815857,11.855817315815857,0,1,1,11.855817315815857,0" style="fill: #9d755d; stroke: black; stroke-width: 1; opacity: 0.8;"></path><path transform="translate(1200,15)" d="M12.769825480843819,0A12.769825480843819,12.769825480843819,0,1,1,-12.769825480843819,0A12.769825480843819,12.769825480843819,0,1,1,12.769825480843819,0" style="fill: #9d755d; stroke: black; stroke-width: 1; opacity: 0.8;"></path><path transform="translate(1200,285)" d="M22.360679774997898,0A22.360679774997898,22.360679774997898,0,1,1,-22.360679774997898,0A22.360679774997898,22.360679774997898,0,1,1,22.360679774997898,0" style="fill: #f58518; stroke: black; stroke-width: 1; opacity: 0.8;"></path><path transform="translate(1200,195)" d="M2.490219730081704,0A2.490219730081704,2.490219730081704,0,1,1,-2.490219730081704,0A2.490219730081704,2.490219730081704,0,1,1,2.490219730081704,0" style="fill: #72b7b2; stroke: black; stroke-width: 1; opacity: 0.8;"></path></g><g class="mark-group role-legend"><g transform="translate(1218,0)"><path class="background" d="M0,0h154v262h-154Z" style="pointer-events: none; fill: none;"></path><g><g class="mark-group role-legend-entry"><g transform="translate(20,36)"><path class="background" d="M0,0h0v0h0Z" style="pointer-events: none; fill: none;"></path><g><g class="mark-group role-scope"><g transform="translate(0,0)"><path class="background" d="M0,0h89v50h-89Z" style="pointer-events: none; fill: none; opacity: 1;"></path><g><g class="mark-symbol role-legend-symbol" clip-path="url(#clip1)" style="pointer-events: none;"><path transform="translate(22.5,25)" d="M10.716199492226188,0A10.716199492226188,10.716199492226188,0,1,1,-10.716199492226188,0A10.716199492226188,10.716199492226188,0,1,1,10.716199492226188,0" style="fill: black; fill-opacity: 0.8; stroke: black; stroke-width: 1.5; opacity: 0.8;"></path></g><g class="mark-text role-legend-label" style="pointer-events: none;"><text text-anchor="start" transform="translate(49,28)" style="font-family: sans-serif; font-size: 10px; fill: #000; opacity: 1;">500</text></g></g><path class="foreground" d="" style="pointer-events: none; display: none; fill: none;"></path></g><g transform="translate(0,52)"><path class="background" d="M0,0h89v50h-89Z" style="pointer-events: none; fill: none; opacity: 1;"></path><g><g class="mark-symbol role-legend-symbol" clip-path="url(#clip2)" style="pointer-events: none;"><path transform="translate(22.5,25)" d="M15.15499465900195,0A15.15499465900195,15.15499465900195,0,1,1,-15.15499465900195,0A15.15499465900195,15.15499465900195,0,1,1,15.15499465900195,0" style="fill: black; fill-opacity: 0.8; stroke: black; stroke-width: 1.5; opacity: 0.8;"></path></g><g class="mark-text role-legend-label" style="pointer-events: none;"><text text-anchor="start" transform="translate(49,28)" style="font-family: sans-serif; font-size: 10px; fill: #000; opacity: 1;">1,000</text></g></g><path class="foreground" d="" style="pointer-events: none; display: none; fill: none;"></path></g><g transform="translate(0,104)"><path class="background" d="M0,0h89v50h-89Z" style="pointer-events: none; fill: none; opacity: 1;"></path><g><g class="mark-symbol role-legend-symbol" clip-path="url(#clip3)" style="pointer-events: none;"><path transform="translate(22.5,25)" d="M18.561001984579562,0A18.561001984579562,18.561001984579562,0,1,1,-18.561001984579562,0A18.561001984579562,18.561001984579562,0,1,1,18.561001984579562,0" style="fill: black; fill-opacity: 0.8; stroke: black; stroke-width: 1.5; opacity: 0.8;"></path></g><g class="mark-text role-legend-label" style="pointer-events: none;"><text text-anchor="start" transform="translate(49,28)" style="font-family: sans-serif; font-size: 10px; fill: #000; opacity: 1;">1,500</text></g></g><path class="foreground" d="" style="pointer-events: none; display: none; fill: none;"></path></g><g transform="translate(0,156)"><path class="background" d="M0,0h89v50h-89Z" style="pointer-events: none; fill: none; opacity: 1;"></path><g><g class="mark-symbol role-legend-symbol" clip-path="url(#clip4)" style="pointer-events: none;"><path transform="translate(22.5,25)" d="M21.432398984452377,0A21.432398984452377,21.432398984452377,0,1,1,-21.432398984452377,0A21.432398984452377,21.432398984452377,0,1,1,21.432398984452377,0" style="fill: black; fill-opacity: 0.8; stroke: black; stroke-width: 1.5; opacity: 0.8;"></path></g><g class="mark-text role-legend-label" style="pointer-events: none;"><text text-anchor="start" transform="translate(49,28)" style="font-family: sans-serif; font-size: 10px; fill: #000; opacity: 1;">2,000</text></g></g><path class="foreground" d="" style="pointer-events: none; display: none; fill: none;"></path></g></g></g><path class="foreground" d="" style="pointer-events: none; display: none; fill: none;"></path></g></g><g class="mark-text role-legend-title" style="pointer-events: none;"><text text-anchor="start" transform="translate(20,29)" style="font-family: sans-serif; font-size: 11px; font-weight: bold; fill: #000; opacity: 1;">Cas confirmés</text></g></g><path class="foreground" d="" style="pointer-events: none; display: none; fill: none;"></path></g></g><g class="mark-group role-title"><g transform="translate(600,-17)"><path class="background" d="M0,0h0v0h0Z" style="pointer-events: none; fill: none;"></path><g><g class="mark-text role-title-text" style="pointer-events: none;"><text text-anchor="middle" transform="translate(0,10)" style="font-family: sans-serif; font-size: 13px; font-weight: bold; fill: #000; opacity: 1;">Cas confirmés de contamination au COVID19 (Source: Santé Publique France)</text></g></g><path class="foreground" d="" style="pointer-events: none; display: none; fill: none;"></path></g></g></g><path class="foreground" d="" style="display: none; fill: none;"></path></g></g></g></svg>